<?xml version="1.0" encoding="iso-8859-1"?>
<!-- Generator: Adobe Illustrator 19.0.0, SVG Export Plug-In . SVG Version: 6.00 Build 0)  -->
<svg version="1.1" id="Layer_1" xmlns="http://www.w3.org/2000/svg" xmlns:xlink="http://www.w3.org/1999/xlink" x="0px" y="0px"
	 viewBox="0 0 512 512" style="enable-background:new 0 0 512 512;" xml:space="preserve">
<path style="fill:#E6CFA8;" d="M512,185.144v279.231c0,3.571-2.895,6.467-6.467,6.467H6.467c-3.571,0-6.467-2.895-6.467-6.467
	V185.144c0-1.562,0.845-3.003,2.21-3.765L252.857,41.972c1.955-1.087,4.332-1.087,6.287,0L509.791,181.38
	C511.155,182.141,512,183.581,512,185.144z"/>
<path style="fill:#6E76E5;" d="M349.955,148.346c71.155,71.2,65.907,152.952,12.278,206.615s-135.329,58.914-206.484-12.286
	S50.927,150.784,104.557,97.121S278.8,77.146,349.955,148.346z"/>
<path style="fill:#515BE0;" d="M192.667,334.105c-71.155-71.2-104.821-191.891-51.193-245.554
	c7.464-7.469,16.228-13.24,25.973-17.459c-24.871,1.769-46.871,10-62.89,26.029c-53.629,53.663-19.964,174.354,51.192,245.554
	c52.429,52.461,110.579,63.412,159.01,44.079C275.242,389.706,232.317,373.781,192.667,334.105z"/>
<path style="fill:#FF9C33;" d="M317.462,301.44c-0.452,4.625-4.086,8.267-8.709,8.721c-6.359,0.625-16.234,1.444-28.23,1.962
	c-56.31,2.436-159.485-1.886-167.052-65.181c-4.29-35.927,12.655-51.62,32.036-58.142c22.313-7.502,47.858-2.824,47.858-2.824
	s-16.341-89.185,60.911-79.937C331.011,115.224,321.019,265.17,317.462,301.44z"/>
<path style="fill:#515BE0;" d="M194.328,145.938c0,0-0.067-0.187-0.178-0.509c-0.03,0.138-0.062,0.277-0.092,0.415
	C194.228,145.901,194.328,145.938,194.328,145.938z"/>
<path style="fill:#E86F22;" d="M280.522,312.122c-56.31,2.436-159.485-1.886-167.052-65.181
	c-4.29-35.927,12.655-51.62,32.036-58.142C169.187,256.116,224.31,299.414,280.522,312.122z"/>
<g>
	<path style="fill:#FFF3DC;" d="M254.216,220.463c7.974,7.979,7.981,20.908,0.015,28.88c-7.966,7.97-20.888,7.964-28.861-0.015
		s-7.981-20.908-0.015-28.88C233.32,212.478,246.243,212.484,254.216,220.463z"/>
	<path style="fill:#FFF3DC;" d="M195.858,214.704c-7.974-7.979-5.939-16.585,0.621-23.149c6.56-6.564,15.16-8.601,23.134-0.622
		c7.974,7.979,15.972,19.278,5.742,29.515C215.124,230.685,203.832,222.682,195.858,214.704z"/>
	<path style="fill:#FFF3DC;" d="M207.066,270.448c-10.04,5.115-17.593,0.511-21.811-7.767s-3.504-17.093,6.536-22.208
		c10.04-5.115,23.244-9.224,29.822,3.685C228.192,257.067,217.107,265.332,207.066,270.448z"/>
	<path style="fill:#FFF3DC;" d="M263.502,277.061c1.769,11.141-4.934,16.9-14.101,18.348c-9.167,1.448-17.325-1.964-19.094-13.104
		c-1.769-11.141-1.606-24.979,12.689-27.238C257.291,252.808,261.733,265.92,263.502,277.061z"/>
	<path style="fill:#FFF3DC;" d="M287.172,225.403c11.133,1.77,14.543,9.934,13.096,19.107c-1.447,9.173-7.205,15.879-18.337,14.109
		c-11.132-1.77-24.236-6.214-21.979-20.519C262.209,223.796,276.039,223.633,287.172,225.403z"/>
	<path style="fill:#FFF3DC;" d="M245.366,186.864c5.112-10.047,13.922-10.761,22.195-6.54c8.272,4.22,12.873,11.778,7.762,21.825
		c-5.112,10.047-13.373,21.139-26.273,14.556C236.149,210.123,240.254,196.911,245.366,186.864z"/>
	<path style="fill:#FFF3DC;" d="M512,188.483v275.893c0,3.571-2.895,6.467-6.467,6.467H6.467c-3.571,0-6.467-2.895-6.467-6.467
		V188.449c0-2.679,2.821-4.419,5.215-3.217L256,311.088l0.001,0.001c1.023,0.515,2.229,0.512,3.25-0.006l247.518-125.809
		C509.163,184.056,512,185.795,512,188.483z"/>
</g>
<path style="fill:#F0DFC0;" d="M256,311.088v159.754H6.467c-3.571,0-6.467-2.895-6.467-6.467V186.108
	c0-1.604,1.69-2.647,3.123-1.927L256,311.088z"/>
<g>
</g>
<g>
</g>
<g>
</g>
<g>
</g>
<g>
</g>
<g>
</g>
<g>
</g>
<g>
</g>
<g>
</g>
<g>
</g>
<g>
</g>
<g>
</g>
<g>
</g>
<g>
</g>
<g>
</g>
</svg>
