<?xml version="1.0" encoding="utf-8"?>
<!-- Generator: Adobe Illustrator 24.1.2, SVG Export Plug-In . SVG Version: 6.00 Build 0)  -->
<svg version="1.1" id="Layer_1" xmlns="http://www.w3.org/2000/svg" xmlns:xlink="http://www.w3.org/1999/xlink" x="0px" y="0px"
	 viewBox="0 0 489.9 512.9" style="enable-background:new 0 0 489.9 512.9;" xml:space="preserve">
<style type="text/css">
	.st0{opacity:0.9;}
	.st1{fill:#00B3D4;}
	.st2{fill:#E30613;}
	.st3{fill:#1D71B8;}
</style>
<g>
	
		<image style="overflow:visible;opacity:0.9;enable-background:new    ;" width="2046" height="2142" xlink:href="1874DD76.png"  transform="matrix(0.2394 0 0 0.2394 0 0.5371)">
	</image>
	<g>
		<g>
			<g class="st0">
				<g>
					<path class="st1" d="M139,67.7"/>
					<path class="st1" d="M199.5,235.4"/>
					<path class="st2" d="M229.6,492.2c-19.2-18.1-38.4-35.4-58-50.8c9.2-139.1,1.9-246.9-9.9-367.1c28.9-19.3,57.8-41,87-64.1
						C267.9,180.5,263.6,320.8,229.6,492.2z"/>
					<path class="st2" d="M435.2,309.6C267.6,289.4,151.3,274,31.7,269.4c-5-18.2-10.1-35.3-15.1-51.4
						c129.7-8.8,255.1-39.4,433.7-78.3C449.9,197.3,444.8,254.1,435.2,309.6z"/>
				</g>
			</g>
			<g>
				<g>
					<path class="st3" d="M28.3,248.5c-5.3,0-12-0.7-15.8-1.7l-2.9-0.7l3.7-12.5l2.6,0.6c3.3,0.8,7.4,1.2,11.3,1.2
						c12.8,0,17.4-3.6,17.4-13.8v-47.1h19.9v47.8C64.4,239.7,52.3,248.5,28.3,248.5z"/>
					<rect x="82.4" y="174.6" class="st3" width="19.9" height="72.8"/>
					<path class="st3" d="M217,247.4l-3-32.1c-0.5-5.8-1.1-12.5-1.4-18.8c-2.7,5.1-5.8,10.6-9.3,16.5L183,247h-14l-18.6-33.4
						c-3.4-6.1-6.1-11.4-8.4-16.1c-0.4,5.9-0.9,12.4-1.5,18.6l-3.2,31.4h-19.3l8.3-72.8h22.3l19.6,33.9c3.8,6.9,6.7,12.5,8.9,17.5
						c2.3-4.9,5.3-10.5,9.3-17.5l20.4-33.9h22.3l7.4,72.8H217z"/>
					<path class="st3" d="M348.1,247.4l-3-32.1c-0.5-5.8-1.1-12.5-1.4-18.8c-2.7,5.1-5.8,10.6-9.3,16.5l-20.2,34h-14l-18.6-33.4
						c-3.4-6.1-6.1-11.4-8.4-16.1c-0.4,5.9-0.9,12.4-1.5,18.6l-3.2,31.4h-19.3l8.3-72.8h22.3l19.6,33.9c3.8,6.9,6.7,12.5,8.9,17.5
						c2.3-4.9,5.3-10.5,9.3-17.5l20.4-33.9h22.3l7.4,72.8H348.1z"/>
					<path class="st3" d="M408.1,247.4v-30.3l-38.3-42.6h23.8l16.3,19.6c3.6,4.3,6.4,7.8,8.9,11.1c2.2-2.9,4.7-5.9,7.5-9.2l1.6-1.9
						l16.7-19.6h24.1l-40.6,42.5v30.3L408.1,247.4L408.1,247.4z"/>
				</g>
			</g>
			<g>
				<g>
					<polygon class="st3" points="19.2,330.3 19.2,257.5 70.5,257.5 70.5,270.5 35.8,270.5 35.8,286 68.6,286 68.6,298.9 
						35.8,298.9 35.8,317.4 72.4,317.4 72.4,330.3 					"/>
					<path class="st3" d="M134.7,330.3l-27.7-35.2c-4.2-5.3-7.6-9.9-10.5-14.2c0.2,5.3,0.3,11,0.3,17.8v31.5H80.9v-72.8H97l27.9,35
						c3.5,4.4,6.7,8.7,9.5,12.8c-0.3-5.5-0.4-10.9-0.4-16.9v-30.9H150v72.8L134.7,330.3L134.7,330.3z"/>
					<path class="st3" d="M204.6,331c-14,0-24.9-3.1-33.3-9.4c-8.2-6.3-12.9-16.2-12.9-27.3c0.1-22.4,19.7-37.5,48.6-37.5
						c10,0,18,1.7,22.1,3.3l2.6,1l-4.6,12.3l-2.6-0.9c-3.6-1.3-8.9-2.7-17.7-2.7c-19.2,0-31.1,9.3-31.1,24.2
						c0,15.2,11.1,24.3,29.8,24.3c6,0,9.7-0.6,11.7-1.1V302h-17.2v-12.6h33.5v37.3l-2.1,0.6C225.2,329,215.7,331,204.6,331z"/>
					<polygon class="st3" points="244.4,330.3 244.4,257.5 260.9,257.5 260.9,317.4 297.1,317.4 297.1,330.3 					"/>
					<rect x="303.5" y="257.5" class="st3" width="16.6" height="72.8"/>
					<path class="st3" d="M353.6,331.3c-8.4,0-17.8-1.9-22.9-4.6l-2.2-1.2l4.8-12.5l2.8,1.4c5.2,2.6,12.1,4.1,18.3,4.1
						c9.2,0,14.8-3.3,14.8-8.6c0-4-2.3-7.1-13.9-10.6c-10.4-2.9-24.3-8.4-24.3-21.7c0-12.4,12.4-21.1,30.2-21.1
						c10.4,0,16.9,2.2,19.9,3.5l2.5,1.1l-5.2,12.3l-2.6-1.1c-3.1-1.4-8.2-3-14.9-3c-9,0-13.1,3.6-13.1,7.2c0,3.8,2.3,6.4,14.8,10.2
						c11.6,3.6,23.6,9,23.6,22.4C386.1,319.4,377.6,331.3,353.6,331.3z"/>
					<polygon class="st3" points="447.1,330.3 447.1,298.9 411.9,298.9 411.9,330.3 395.3,330.3 395.3,257.5 411.9,257.5 
						411.9,285.6 447.1,285.6 447.1,257.5 463.8,257.5 463.8,330.3 					"/>
				</g>
			</g>
		</g>
	</g>
</g>
</svg>
